<svg xmlns="http://www.w3.org/2000/svg" viewBox="0 0 1600 900" width="1600" height="900" role="img" aria-label="OrgaAI — real-time conversational audio pipeline">
<defs>
<linearGradient id="ogBar" x1="0" y1="0" x2="0" y2="1"><stop offset="0%" stop-color="#D6BCFA"/><stop offset="100%" stop-color="#9F7AEA"/></linearGradient>
<radialGradient id="ogGlow"><stop offset="0%" stop-color="#9F7AEA" stop-opacity="0.150"/><stop offset="30%" stop-color="#9F7AEA" stop-opacity="0.078"/><stop offset="55%" stop-color="#9F7AEA" stop-opacity="0.033"/><stop offset="78%" stop-color="#9F7AEA" stop-opacity="0.009"/><stop offset="100%" stop-color="#9F7AEA" stop-opacity="0"/></radialGradient>
</defs>
<rect width="1600" height="900" fill="#0d0d0d"/>
<ellipse cx="720" cy="450" rx="700" ry="420" fill="url(#ogGlow)"/>
<rect x="-100" y="355" width="7" height="190" rx="3.5" fill="#4a4a4a"/>
<rect x="-87" y="360" width="7" height="179" rx="3.5" fill="#4a4a4a"/>
<rect x="-74" y="322" width="7" height="255" rx="3.5" fill="#4a4a4a"/>
<rect x="-61" y="360" width="7" height="180" rx="3.5" fill="#4a4a4a"/>
<rect x="-48" y="328" width="7" height="244" rx="3.5" fill="#4a4a4a"/>
<rect x="-35" y="343" width="7" height="214" rx="3.5" fill="#4a4a4a"/>
<rect x="-22" y="368" width="7" height="163" rx="3.5" fill="#4a4a4a"/>
<rect x="-9" y="348" width="7" height="204" rx="3.5" fill="#4a4a4a"/>
<rect x="4" y="383" width="7" height="135" rx="3.5" fill="#4a4a4a"/>
<rect x="17" y="370" width="7" height="159" rx="3.5" fill="#4a4a4a"/>
<rect x="30" y="394" width="7" height="112" rx="3.5" fill="#4a4a4a"/>
<rect x="43" y="398" width="7" height="104" rx="3.5" fill="#4a4a4a"/>
<rect x="56" y="389" width="7" height="122" rx="3.5" fill="#4a4a4a"/>
<rect x="69" y="375" width="7" height="150" rx="3.5" fill="#4a4a4a"/>
<rect x="82" y="400" width="7" height="101" rx="3.5" fill="#4a4a4a"/>
<rect x="95" y="393" width="7" height="115" rx="3.5" fill="#4a4a4a"/>
<rect x="108" y="371" width="7" height="158" rx="3.5" fill="#4a4a4a"/>
<rect x="121" y="350" width="7" height="200" rx="3.5" fill="#4a4a4a"/>
<rect x="134" y="361" width="7" height="177" rx="3.5" fill="#4a4a4a"/>
<rect x="147" y="366" width="7" height="167" rx="3.5" fill="#4a4a4a"/>
<rect x="160" y="333" width="7" height="233" rx="3.5" fill="#4a4a4a"/>
<rect x="173" y="382" width="7" height="135" rx="3.5" fill="#4a4a4a"/>
<rect x="186" y="341" width="7" height="218" rx="3.5" fill="#4a4a4a"/>
<rect x="199" y="373" width="7" height="154" rx="3.5" fill="#4a4a4a"/>
<rect x="212" y="383" width="7" height="133" rx="3.5" fill="#4a4a4a"/>
<rect x="225" y="388" width="7" height="125" rx="3.5" fill="#4a4a4a"/>
<rect x="238" y="381" width="7" height="138" rx="3.5" fill="#4a4a4a"/>
<rect x="251" y="360" width="7" height="180" rx="3.5" fill="#4a4a4a"/>
<rect x="264" y="387" width="7" height="125" rx="3.5" fill="#4a4a4a"/>
<rect x="277" y="367" width="7" height="166" rx="3.5" fill="#4a4a4a"/>
<rect x="290" y="360" width="7" height="180" rx="3.5" fill="#4a4a4a"/>
<rect x="303" y="368" width="7" height="163" rx="3.5" fill="#4a4a4a"/>
<rect x="316" y="354" width="7" height="192" rx="3.5" fill="#4a4a4a"/>
<rect x="329" y="377" width="7" height="145" rx="3.5" fill="#4a4a4a"/>
<rect x="342" y="376" width="7" height="148" rx="3.5" fill="#4a4a4a"/>
<rect x="355" y="368" width="7" height="165" rx="3.5" fill="#4a4a4a"/>
<rect x="368" y="344" width="7" height="212" rx="3.5" fill="#4a4a4a"/>
<rect x="381" y="364" width="7" height="171" rx="3.5" fill="#4a4a4a"/>
<rect x="394" y="379" width="7" height="142" rx="3.5" fill="#4a4a4a"/>
<rect x="407" y="379" width="7" height="143" rx="3.5" fill="#4a4a4a"/>
<rect x="420" y="396" width="7" height="107" rx="3.5" fill="#4a4a4a"/>
<rect x="433" y="413" width="7" height="74" rx="3.5" fill="#4a4a4a"/>
<rect x="446" y="415" width="7" height="69" rx="3.5" fill="#4a4a4a"/>
<rect x="459" y="429" width="7" height="42" rx="3.5" fill="#4a4a4a"/>
<rect x="472" y="441" width="7" height="18" rx="3.5" fill="#4a4a4a"/>
<rect x="485" y="442" width="7" height="16" rx="3.5" fill="#4a4a4a"/>
<rect x="498" y="442" width="7" height="16" rx="3.5" fill="#4a4a4a"/>
<rect x="511" y="440" width="7" height="19" rx="3.5" fill="#4a4a4a"/>
<rect x="524" y="441" width="7" height="18" rx="3.5" fill="#4a4a4a"/>
<rect x="537" y="443" width="7" height="14" rx="3.5" fill="#4a4a4a"/>
<rect x="550" y="440" width="7" height="20" rx="3.5" fill="#4a4a4a"/>
<rect x="563" y="444" width="7" height="12" rx="3.5" fill="#4a4a4a"/>
<rect x="576" y="442" width="7" height="15" rx="3.5" fill="#4a4a4a"/>
<rect x="589" y="441" width="7" height="18" rx="3.5" fill="#4a4a4a"/>
<rect x="602" y="444" width="7" height="13" rx="3.5" fill="#4a4a4a"/>
<rect x="615" y="442" width="7" height="16" rx="3.5" fill="#4a4a4a"/>
<rect x="628" y="444" width="7" height="12" rx="3.5" fill="#4a4a4a"/>
<rect x="641" y="441" width="7" height="17" rx="3.5" fill="#4a4a4a"/>
<rect x="654" y="441" width="7" height="18" rx="3.5" fill="#4a4a4a"/>
<rect x="667" y="442" width="7" height="16" rx="3.5" fill="#4a4a4a"/>
<rect x="680" y="440" width="7" height="19" rx="3.5" fill="#4a4a4a"/>
<rect x="693" y="443" width="7" height="14" rx="3.5" fill="#4a4a4a"/>
<rect x="706" y="441" width="7" height="18" rx="3.5" fill="#4a4a4a"/>
<rect x="719" y="431" width="7" height="37" rx="3.5" fill="#4a4a4a"/>
<rect x="732" y="420" width="7" height="61" rx="3.5" fill="url(#ogBar)" opacity="0.56"/>
<rect x="745" y="411" width="7" height="78" rx="3.5" fill="url(#ogBar)" opacity="0.57"/>
<rect x="758" y="390" width="7" height="119" rx="3.5" fill="url(#ogBar)" opacity="0.58"/>
<rect x="771" y="378" width="7" height="143" rx="3.5" fill="url(#ogBar)" opacity="0.60"/>
<rect x="784" y="389" width="7" height="121" rx="3.5" fill="url(#ogBar)" opacity="0.61"/>
<rect x="797" y="381" width="7" height="138" rx="3.5" fill="url(#ogBar)" opacity="0.62"/>
<rect x="810" y="404" width="7" height="92" rx="3.5" fill="url(#ogBar)" opacity="0.63"/>
<rect x="823" y="385" width="7" height="130" rx="3.5" fill="url(#ogBar)" opacity="0.64"/>
<rect x="836" y="392" width="7" height="115" rx="3.5" fill="url(#ogBar)" opacity="0.65"/>
<rect x="849" y="389" width="7" height="123" rx="3.5" fill="url(#ogBar)" opacity="0.67"/>
<rect x="862" y="399" width="7" height="102" rx="3.5" fill="url(#ogBar)" opacity="0.68"/>
<rect x="875" y="416" width="7" height="69" rx="3.5" fill="url(#ogBar)" opacity="0.69"/>
<rect x="888" y="415" width="7" height="71" rx="3.5" fill="url(#ogBar)" opacity="0.70"/>
<rect x="901" y="408" width="7" height="84" rx="3.5" fill="url(#ogBar)" opacity="0.71"/>
<rect x="914" y="421" width="7" height="59" rx="3.5" fill="url(#ogBar)" opacity="0.72"/>
<rect x="927" y="406" width="7" height="87" rx="3.5" fill="url(#ogBar)" opacity="0.74"/>
<rect x="940" y="410" width="7" height="80" rx="3.5" fill="url(#ogBar)" opacity="0.75"/>
<rect x="953" y="408" width="7" height="84" rx="3.5" fill="url(#ogBar)" opacity="0.76"/>
<rect x="966" y="407" width="7" height="86" rx="3.5" fill="url(#ogBar)" opacity="0.77"/>
<rect x="979" y="380" width="7" height="140" rx="3.5" fill="url(#ogBar)" opacity="0.78"/>
<rect x="992" y="402" width="7" height="96" rx="3.5" fill="url(#ogBar)" opacity="0.79"/>
<rect x="1005" y="399" width="7" height="102" rx="3.5" fill="url(#ogBar)" opacity="0.81"/>
<rect x="1018" y="397" width="7" height="107" rx="3.5" fill="url(#ogBar)" opacity="0.82"/>
<rect x="1031" y="385" width="7" height="130" rx="3.5" fill="url(#ogBar)" opacity="0.83"/>
<rect x="1044" y="412" width="7" height="76" rx="3.5" fill="url(#ogBar)" opacity="0.84"/>
<rect x="1057" y="404" width="7" height="92" rx="3.5" fill="url(#ogBar)" opacity="0.85"/>
<rect x="1070" y="402" width="7" height="96" rx="3.5" fill="url(#ogBar)" opacity="0.86"/>
<rect x="1083" y="391" width="7" height="118" rx="3.5" fill="url(#ogBar)" opacity="0.88"/>
<rect x="1096" y="388" width="7" height="125" rx="3.5" fill="url(#ogBar)" opacity="0.89"/>
<rect x="1109" y="377" width="7" height="146" rx="3.5" fill="url(#ogBar)" opacity="0.90"/>
<rect x="1122" y="389" width="7" height="122" rx="3.5" fill="url(#ogBar)" opacity="0.91"/>
<rect x="1135" y="373" width="7" height="155" rx="3.5" fill="url(#ogBar)" opacity="0.92"/>
<rect x="1148" y="364" width="7" height="172" rx="3.5" fill="url(#ogBar)" opacity="0.94"/>
<rect x="1161" y="321" width="7" height="258" rx="3.5" fill="url(#ogBar)" opacity="0.95"/>
<rect x="1174" y="303" width="7" height="293" rx="3.5" fill="url(#ogBar)" opacity="0.96"/>
<rect x="1187" y="351" width="7" height="198" rx="3.5" fill="url(#ogBar)" opacity="0.97"/>
<rect x="1200" y="345" width="7" height="210" rx="3.5" fill="url(#ogBar)" opacity="0.98"/>
<rect x="1213" y="339" width="7" height="222" rx="3.5" fill="url(#ogBar)" opacity="0.99"/>
<rect x="1226" y="339" width="7" height="221" rx="3.5" fill="url(#ogBar)" opacity="1.00"/>
<rect x="1239" y="323" width="7" height="254" rx="3.5" fill="url(#ogBar)" opacity="1.00"/>
<rect x="1252" y="320" width="7" height="259" rx="3.5" fill="url(#ogBar)" opacity="1.00"/>
<rect x="1265" y="348" width="7" height="204" rx="3.5" fill="url(#ogBar)" opacity="1.00"/>
<rect x="1278" y="370" width="7" height="161" rx="3.5" fill="url(#ogBar)" opacity="1.00"/>
<rect x="1291" y="347" width="7" height="207" rx="3.5" fill="url(#ogBar)" opacity="1.00"/>
<rect x="1304" y="352" width="7" height="195" rx="3.5" fill="url(#ogBar)" opacity="1.00"/>
<rect x="1317" y="342" width="7" height="216" rx="3.5" fill="url(#ogBar)" opacity="1.00"/>
<rect x="1330" y="319" width="7" height="262" rx="3.5" fill="url(#ogBar)" opacity="1.00"/>
<rect x="1343" y="334" width="7" height="232" rx="3.5" fill="url(#ogBar)" opacity="1.00"/>
<rect x="1356" y="344" width="7" height="211" rx="3.5" fill="url(#ogBar)" opacity="1.00"/>
<rect x="1369" y="339" width="7" height="223" rx="3.5" fill="url(#ogBar)" opacity="1.00"/>
<rect x="1382" y="337" width="7" height="225" rx="3.5" fill="url(#ogBar)" opacity="1.00"/>
<rect x="1395" y="377" width="7" height="145" rx="3.5" fill="url(#ogBar)" opacity="1.00"/>
<rect x="1408" y="337" width="7" height="225" rx="3.5" fill="url(#ogBar)" opacity="1.00"/>
<rect x="1421" y="354" width="7" height="192" rx="3.5" fill="url(#ogBar)" opacity="1.00"/>
<rect x="1434" y="363" width="7" height="174" rx="3.5" fill="url(#ogBar)" opacity="1.00"/>
<rect x="1447" y="380" width="7" height="140" rx="3.5" fill="url(#ogBar)" opacity="1.00"/>
<rect x="1460" y="406" width="7" height="89" rx="3.5" fill="url(#ogBar)" opacity="1.00"/>
<rect x="1473" y="416" width="7" height="68" rx="3.5" fill="url(#ogBar)" opacity="1.00"/>
<rect x="1486" y="429" width="7" height="41" rx="3.5" fill="url(#ogBar)" opacity="1.00"/>
<rect x="1499" y="428" width="7" height="44" rx="3.5" fill="url(#ogBar)" opacity="1.00"/>
<rect x="1512" y="438" width="7" height="25" rx="3.5" fill="url(#ogBar)" opacity="1.00"/>
<rect x="1525" y="438" width="7" height="24" rx="3.5" fill="url(#ogBar)" opacity="1.00"/>
<rect x="1538" y="434" width="7" height="31" rx="3.5" fill="url(#ogBar)" opacity="1.00"/>
<rect x="1551" y="431" width="7" height="38" rx="3.5" fill="url(#ogBar)" opacity="1.00"/>
<rect x="1564" y="423" width="7" height="54" rx="3.5" fill="url(#ogBar)" opacity="1.00"/>
<rect x="1577" y="423" width="7" height="53" rx="3.5" fill="url(#ogBar)" opacity="1.00"/>
<rect x="1590" y="421" width="7" height="59" rx="3.5" fill="url(#ogBar)" opacity="1.00"/>
<rect x="1603" y="414" width="7" height="72" rx="3.5" fill="url(#ogBar)" opacity="1.00"/>
<rect x="1616" y="414" width="7" height="73" rx="3.5" fill="url(#ogBar)" opacity="1.00"/>
<rect x="1629" y="407" width="7" height="87" rx="3.5" fill="url(#ogBar)" opacity="1.00"/>
<rect x="1642" y="417" width="7" height="65" rx="3.5" fill="url(#ogBar)" opacity="1.00"/>
<rect x="1655" y="400" width="7" height="100" rx="3.5" fill="url(#ogBar)" opacity="1.00"/>
<rect x="1668" y="411" width="7" height="78" rx="3.5" fill="url(#ogBar)" opacity="1.00"/>
<rect x="1681" y="424" width="7" height="51" rx="3.5" fill="url(#ogBar)" opacity="1.00"/>
<line x1="720" y1="0" x2="720" y2="900" stroke="#D6BCFA" stroke-width="2.5" opacity="0.85"/>
<circle cx="720" cy="450" r="30" fill="#0d0d0d" stroke="#D6BCFA" stroke-width="3"/>
<circle cx="720" cy="450" r="9" fill="#D6BCFA"/>
<circle cx="720" cy="450" r="64" fill="none" stroke="#9F7AEA" stroke-width="1.5" opacity="0.45" stroke-dasharray="4 9"/>
<line x1="0" y1="450" x2="1600" y2="450" stroke="#ffffff" stroke-opacity="0.10" stroke-width="1"/>
</svg>
